M48
; DRILL file {KiCad 9.0.5} date 2025-10-18T22:02:24+0100
; FORMAT={-:-/ absolute / inch / decimal}
; #@! TF.CreationDate,2025-10-18T22:02:24+01:00
; #@! TF.GenerationSoftware,Kicad,Pcbnew,9.0.5
; #@! TF.FileFunction,Plated,1,2,Blind
FMAT,2
INCH
; #@! TA.AperFunction,Plated,Buried,ViaDrill
T1C0.0118
; #@! TA.AperFunction,Plated,Buried,ViaDrill
T2C0.0157
%
G90
G05
T1
X2.9163Y-3.0699
X3.7382Y-1.5748
X3.7972Y-1.1102
X4.9528Y-4.5522
X4.9734Y-1.4114
X5.02Y-3.386
X5.1915Y-3.3496
X5.224Y-3.194
X5.3563Y-1.1358
X5.3563Y-1.3927
X5.3957Y-1.9173
X5.4528Y-1.4055
X5.4803Y-2.312
X5.4893Y-2.1848
X5.5827Y-1.8012
X6.112Y-3.47
X6.1693Y-4.5315
X6.2372Y-4.626
X6.2835Y-3.2126
X6.2884Y-3.4173
X6.3868Y-3.3799
X6.4478Y-3.1929
X6.4488Y-3.4852
X7.2913Y-3.3809
X7.3228Y-4.5669
X7.48Y-3.3071
X7.482Y-3.4
X7.5207Y-3.4705
X7.5344Y-2.1112
X7.5344Y-2.4646
X7.5492Y-3.2136
X7.6427Y-2.0768
X7.6634Y-3.037
X7.7352Y-2.7215
X7.8927Y-2.622
X8.1614Y-2.3936
X8.5236Y-4.5472
X8.5433Y-1.5748
X8.6083Y-1.2785
X8.623Y-1.5482
X8.7165Y-1.5827
X8.7283Y-3.2057
X8.7313Y-1.9724
X8.812Y-1.5965
X8.813Y-1.6573
X8.8553Y-1.3809
X8.9065Y-1.5295
X8.9094Y-1.2254
X8.9488Y-1.1929
X8.9675Y-2.0148
X9.0175Y-1.2168
X9.1526Y-2.5896
X9.1605Y-1.1938
X9.1624Y-2.8159
X9.2116Y-2.1821
X9.2165Y-1.8081
X9.2451Y-1.6644
X9.2559Y-1.4232
X9.2913Y-1.3711
X9.2913Y-2.0335
X9.3278Y-2.3848
X9.4684Y-2.0719
X9.4705Y-2.1073
X9.4778Y-1.2783
X9.5561Y-2.1053
X9.6083Y-1.3632
X9.6112Y-2.2195
X9.6319Y-1.4006
X9.6663Y-1.2756
T2
X2.6132Y-1.3967
X2.7697Y-4.5896
X2.7913Y-3.2205
X2.9163Y-3.2736
X2.9646Y-2.9459
X3.0728Y-2.9469
X3.7657Y-4.564
X3.813Y-3.1939
M30
