M48
; DRILL file {KiCad 9.0.5} date 2025-10-18T22:02:24+0100
; FORMAT={-:-/ absolute / inch / decimal}
; #@! TF.CreationDate,2025-10-18T22:02:24+01:00
; #@! TF.GenerationSoftware,Kicad,Pcbnew,9.0.5
; #@! TF.FileFunction,Plated,1,3,Blind
FMAT,2
INCH
; #@! TA.AperFunction,Plated,Buried,ViaDrill
T1C0.0118
; #@! TA.AperFunction,Plated,Buried,ViaDrill
T2C0.0157
%
G90
G05
T1
X3.811Y-1.1496
X3.811Y-1.1772
X3.811Y-1.2047
X3.8425Y-1.1496
X3.8425Y-1.1772
X3.8425Y-1.2047
X4.4518Y-1.0866
X4.4518Y-1.1142
X4.4518Y-1.1417
X4.4833Y-1.0866
X4.4833Y-1.1142
X4.4833Y-1.1417
X4.9764Y-1.0866
X4.9764Y-1.1142
X4.9764Y-1.1417
X5.0079Y-1.0866
X5.0079Y-1.1142
X5.0079Y-1.1417
X5.292Y-3.486
X6.1081Y-3.2789
X6.4449Y-2.2677
X6.4449Y-2.2992
X6.4764Y-2.2677
X6.4764Y-2.2992
X7.1359Y-2.7354
X7.3061Y-2.5856
X7.3061Y-2.6181
X7.3425Y-2.5856
X7.3425Y-2.6181
X7.377Y-2.5856
X7.377Y-2.6181
X7.4006Y-1.7838
X7.4006Y-1.8153
X7.4321Y-1.7838
X7.4321Y-1.8153
X7.4496Y-3.0573
X7.5051Y-3.587
X8.1575Y-1.9724
X8.1575Y-2.0039
X8.189Y-1.9724
X8.189Y-2.0039
X8.4692Y-3.4147
X8.5827Y-3.5039
X8.6053Y-2.0
X8.6053Y-2.0256
X8.8022Y-2.001
X8.8022Y-2.0266
X8.8307Y-1.8268
X8.865Y-1.8268
X8.965Y-1.57
X8.965Y-1.6
X8.995Y-1.57
X8.995Y-1.6
X9.0059Y-1.5335
X9.4744Y-1.3848
X9.4744Y-1.4134
X9.4744Y-1.4419
X9.6949Y-1.6594
X9.7441Y-1.5128
X9.7441Y-1.5404
T2
X2.4528Y-1.375
X2.7067Y-1.1437
X2.748Y-2.9882
X2.7795Y-4.3898
X3.7854Y-1.311
X3.7874Y-1.4754
X3.7884Y-1.4272
X3.9518Y-2.9636
X3.9528Y-3.0118
X3.9528Y-3.06
X3.9528Y-4.3898
X3.9606Y-1.4281
X3.9606Y-1.4744
X3.9961Y-2.9636
X3.9961Y-3.0118
X3.9961Y-3.06
X4.4587Y-1.4783
X4.4779Y-1.4375
X4.7687Y-1.5404
X4.9085Y-1.4774
X5.1181Y-1.5404
X5.12Y-1.5
X5.1299Y-3.0118
X5.1398Y-4.3907
X5.498Y-2.564
X5.7579Y-1.685
X5.7657Y-2.311
X5.8012Y-1.685
X5.8091Y-2.311
X6.1476Y-3.0315
X6.1821Y-2.7776
X6.251Y-2.2313
X6.3238Y-4.3691
X7.2874Y-2.9074
X7.3228Y-3.1496
X7.5098Y-4.3917
X7.5787Y-1.8051
X7.6654Y-1.9724
X7.68Y-2.885
X7.8002Y-2.7933
X7.9656Y-2.5974
X8.0079Y-2.5994
X8.1447Y-1.4449
X8.576Y-3.0315
X8.5935Y-1.8258
X8.7323Y-4.3898
X9.0551Y-2.6634
X9.1594Y-2.5148
X9.3573Y-2.6388
M30
