M48
; DRILL file {KiCad 9.0.5} date 2025-10-18T22:02:24+0100
; FORMAT={-:-/ absolute / inch / decimal}
; #@! TF.CreationDate,2025-10-18T22:02:24+01:00
; #@! TF.GenerationSoftware,Kicad,Pcbnew,9.0.5
; #@! TF.FileFunction,Plated,2,4,Blind
FMAT,2
INCH
; #@! TA.AperFunction,Plated,Buried,ViaDrill
T1C0.0118
; #@! TA.AperFunction,Plated,Buried,ViaDrill
T2C0.0157
%
G90
G05
T1
X3.5502Y-2.127
X3.5561Y-2.0768
X3.564Y-1.7724
X3.5719Y-1.9242
X3.5719Y-2.0256
X3.5797Y-1.874
X3.5906Y-1.8238
X3.6102Y-2.1161
X3.9203Y-1.875
X3.9203Y-2.1309
X3.9222Y-1.9252
X3.9291Y-1.9754
X3.9321Y-2.0768
X3.9331Y-2.0256
X3.938Y-1.7756
X3.9449Y-1.8268
X3.9596Y-2.5157
X3.9862Y-2.4843
X3.997Y-2.4488
X4.0128Y-2.4114
X7.4232Y-2.3573
X7.4508Y-2.31
X7.4715Y-2.4793
X7.4764Y-2.6132
X7.502Y-2.4911
X7.5659Y-2.4852
X7.6024Y-2.4872
X7.6132Y-2.8478
X7.6467Y-2.8474
X7.6526Y-2.5108
X7.6909Y-2.8465
X7.7018Y-2.5098
X7.7392Y-2.8474
X7.8459Y-1.8148
X7.9913Y-1.8909
X8.0016Y-1.8591
X8.2309Y-1.8293
T2
X3.3839Y-2.4262
X3.3858Y-2.3711
X3.3888Y-2.3219
X3.3917Y-2.4862
X7.963Y-1.4843
X7.9807Y-1.7844
M30
