%TF.GenerationSoftware,KiCad,Pcbnew,9.0.5*%
%TF.CreationDate,2025-10-18T22:02:24+01:00*%
%TF.ProjectId,Smart Home Energy Management System,536d6172-7420-4486-9f6d-6520456e6572,rev?*%
%TF.SameCoordinates,Original*%
%TF.FileFunction,Soldermask,Top*%
%TF.FilePolarity,Negative*%
%FSLAX46Y46*%
G04 Gerber Fmt 4.6, Leading zero omitted, Abs format (unit mm)*
G04 Created by KiCad (PCBNEW 9.0.5) date 2025-10-18 22:02:24*
%MOMM*%
%LPD*%
G01*
G04 APERTURE LIST*
G04 Aperture macros list*
%AMRoundRect*
0 Rectangle with rounded corners*
0 $1 Rounding radius*
0 $2 $3 $4 $5 $6 $7 $8 $9 X,Y pos of 4 corners*
0 Add a 4 corners polygon primitive as box body*
4,1,4,$2,$3,$4,$5,$6,$7,$8,$9,$2,$3,0*
0 Add four circle primitives for the rounded corners*
1,1,$1+$1,$2,$3*
1,1,$1+$1,$4,$5*
1,1,$1+$1,$6,$7*
1,1,$1+$1,$8,$9*
0 Add four rect primitives between the rounded corners*
20,1,$1+$1,$2,$3,$4,$5,0*
20,1,$1+$1,$4,$5,$6,$7,0*
20,1,$1+$1,$6,$7,$8,$9,0*
20,1,$1+$1,$8,$9,$2,$3,0*%
G04 Aperture macros list end*
%ADD10C,3.000000*%
%ADD11RoundRect,0.500000X0.500000X-0.500000X0.500000X0.500000X-0.500000X0.500000X-0.500000X-0.500000X0*%
%ADD12C,2.000000*%
%ADD13RoundRect,0.150000X-0.150000X0.825000X-0.150000X-0.825000X0.150000X-0.825000X0.150000X0.825000X0*%
%ADD14RoundRect,0.250000X1.000000X-1.950000X1.000000X1.950000X-1.000000X1.950000X-1.000000X-1.950000X0*%
%ADD15RoundRect,0.250000X1.350000X0.325000X-1.350000X0.325000X-1.350000X-0.325000X1.350000X-0.325000X0*%
%ADD16C,0.500000*%
%ADD17RoundRect,0.250000X-3.800000X5.250000X-3.800000X-5.250000X3.800000X-5.250000X3.800000X5.250000X0*%
%ADD18RoundRect,0.267317X-0.470683X0.280683X-0.470683X-0.280683X0.470683X-0.280683X0.470683X0.280683X0*%
%ADD19R,1.800000X1.800000*%
%ADD20C,1.800000*%
%ADD21RoundRect,0.267317X0.470683X-0.280683X0.470683X0.280683X-0.470683X0.280683X-0.470683X-0.280683X0*%
%ADD22RoundRect,0.269000X-0.494000X0.269000X-0.494000X-0.269000X0.494000X-0.269000X0.494000X0.269000X0*%
%ADD23RoundRect,0.269000X-0.269000X-0.494000X0.269000X-0.494000X0.269000X0.494000X-0.269000X0.494000X0*%
%ADD24RoundRect,0.250000X0.700000X-1.825000X0.700000X1.825000X-0.700000X1.825000X-0.700000X-1.825000X0*%
%ADD25RoundRect,0.263396X0.949604X-0.434604X0.949604X0.434604X-0.949604X0.434604X-0.949604X-0.434604X0*%
%ADD26RoundRect,0.269000X0.269000X0.494000X-0.269000X0.494000X-0.269000X-0.494000X0.269000X-0.494000X0*%
%ADD27RoundRect,0.100000X-0.100000X0.225000X-0.100000X-0.225000X0.100000X-0.225000X0.100000X0.225000X0*%
%ADD28R,1.700000X1.700000*%
%ADD29C,1.700000*%
%ADD30RoundRect,0.250000X-0.457500X-0.445000X0.457500X-0.445000X0.457500X0.445000X-0.457500X0.445000X0*%
%ADD31C,6.400000*%
%ADD32RoundRect,0.260556X-1.027444X-0.677444X1.027444X-0.677444X1.027444X0.677444X-1.027444X0.677444X0*%
%ADD33C,2.400000*%
%ADD34C,1.500000*%
%ADD35RoundRect,0.263396X-0.949604X0.434604X-0.949604X-0.434604X0.949604X-0.434604X0.949604X0.434604X0*%
%ADD36RoundRect,0.150000X0.150000X-0.662500X0.150000X0.662500X-0.150000X0.662500X-0.150000X-0.662500X0*%
%ADD37RoundRect,0.150000X-0.150000X0.662500X-0.150000X-0.662500X0.150000X-0.662500X0.150000X0.662500X0*%
%ADD38RoundRect,0.260556X-0.677444X1.027444X-0.677444X-1.027444X0.677444X-1.027444X0.677444X1.027444X0*%
%ADD39RoundRect,0.260556X1.027444X0.677444X-1.027444X0.677444X-1.027444X-0.677444X1.027444X-0.677444X0*%
%ADD40C,10.000000*%
%ADD41C,1.600000*%
%ADD42RoundRect,0.250000X1.050000X1.050000X-1.050000X1.050000X-1.050000X-1.050000X1.050000X-1.050000X0*%
%ADD43C,2.600000*%
%ADD44R,5.400000X2.900000*%
%ADD45RoundRect,0.269000X0.494000X-0.269000X0.494000X0.269000X-0.494000X0.269000X-0.494000X-0.269000X0*%
%ADD46RoundRect,0.250000X-1.500000X-0.550000X1.500000X-0.550000X1.500000X0.550000X-1.500000X0.550000X0*%
%ADD47R,3.200000X3.200000*%
%ADD48C,3.200000*%
%ADD49RoundRect,0.250001X-0.949999X-0.949999X0.949999X-0.949999X0.949999X0.949999X-0.949999X0.949999X0*%
%ADD50RoundRect,0.250001X1.149999X-1.149999X1.149999X1.149999X-1.149999X1.149999X-1.149999X-1.149999X0*%
%ADD51C,2.800000*%
%ADD52C,8.000000*%
%ADD53RoundRect,0.267317X-0.280683X-0.470683X0.280683X-0.470683X0.280683X0.470683X-0.280683X0.470683X0*%
%ADD54RoundRect,0.250000X-1.000000X1.950000X-1.000000X-1.950000X1.000000X-1.950000X1.000000X1.950000X0*%
%ADD55RoundRect,0.287778X-0.489222X-0.714222X0.489222X-0.714222X0.489222X0.714222X-0.489222X0.714222X0*%
%ADD56R,1.000000X1.500000*%
%ADD57C,1.440000*%
%ADD58R,1.500000X1.000000*%
%ADD59RoundRect,0.267317X0.280683X0.470683X-0.280683X0.470683X-0.280683X-0.470683X0.280683X-0.470683X0*%
%ADD60C,4.000000*%
%ADD61RoundRect,0.100000X-0.225000X-0.100000X0.225000X-0.100000X0.225000X0.100000X-0.225000X0.100000X0*%
%ADD62RoundRect,0.250000X-0.550000X1.500000X-0.550000X-1.500000X0.550000X-1.500000X0.550000X1.500000X0*%
%ADD63RoundRect,0.244000X0.394000X-0.244000X0.394000X0.244000X-0.394000X0.244000X-0.394000X-0.244000X0*%
%ADD64RoundRect,0.263396X0.434604X0.949604X-0.434604X0.949604X-0.434604X-0.949604X0.434604X-0.949604X0*%
%ADD65RoundRect,0.250000X1.000000X-1.000000X1.000000X1.000000X-1.000000X1.000000X-1.000000X-1.000000X0*%
%ADD66RoundRect,0.250000X0.325000X-1.350000X0.325000X1.350000X-0.325000X1.350000X-0.325000X-1.350000X0*%
%ADD67RoundRect,0.250000X5.250000X3.800000X-5.250000X3.800000X-5.250000X-3.800000X5.250000X-3.800000X0*%
%ADD68RoundRect,0.250000X1.000000X0.300000X-1.000000X0.300000X-1.000000X-0.300000X1.000000X-0.300000X0*%
%ADD69RoundRect,0.250000X0.920000X1.550000X-0.920000X1.550000X-0.920000X-1.550000X0.920000X-1.550000X0*%
%ADD70RoundRect,0.250000X-2.500000X-0.750000X2.500000X-0.750000X2.500000X0.750000X-2.500000X0.750000X0*%
%ADD71R,0.900000X1.500000*%
%ADD72R,1.500000X0.900000*%
%ADD73R,0.900000X0.900000*%
%ADD74C,0.600000*%
G04 APERTURE END LIST*
%TO.C,JP3*%
G36*
X218950000Y-45290000D02*
G01*
X218650000Y-45290000D01*
X218650000Y-43790000D01*
X218950000Y-43790000D01*
X218950000Y-45290000D01*
G37*
%TO.C,JP2*%
G36*
X133975000Y-54000000D02*
G01*
X132475000Y-54000000D01*
X132475000Y-55600000D01*
X133975000Y-55600000D01*
X133975000Y-54000000D01*
G37*
%TO.C,JP1*%
G36*
X133975000Y-59275000D02*
G01*
X132475000Y-59275000D01*
X132475000Y-60875000D01*
X133975000Y-60875000D01*
X133975000Y-59275000D01*
G37*
%TD*%
D10*
%TO.C,K8*%
X232194000Y-114187000D03*
X241094000Y-129387000D03*
X223294000Y-139527000D03*
X223294000Y-131927000D03*
D11*
X237294000Y-116727000D03*
D12*
X227094000Y-116727000D03*
%TD*%
D13*
%TO.C,U7*%
X228755000Y-32540000D03*
X227475000Y-32540000D03*
X226215000Y-32540000D03*
X224945000Y-32540000D03*
X223665000Y-32540000D03*
X222395000Y-32540000D03*
X221135000Y-32540000D03*
X219855000Y-32540000D03*
X219855000Y-37500000D03*
X221135000Y-37500000D03*
X222395000Y-37500000D03*
X223665000Y-37500000D03*
X224945000Y-37500000D03*
X226215000Y-37500000D03*
X227475000Y-37500000D03*
X228755000Y-37500000D03*
%TD*%
D14*
%TO.C,C1*%
X102520000Y-37110000D03*
X102520000Y-28710000D03*
%TD*%
D15*
%TO.C,U2*%
X93980000Y-34990000D03*
X93980000Y-33290000D03*
X93980000Y-31590000D03*
X93980000Y-29890000D03*
X93980000Y-28190000D03*
D16*
X86470000Y-34090000D03*
X86470000Y-31590000D03*
X86470000Y-29090000D03*
X83970000Y-34090000D03*
X83970000Y-31590000D03*
X83970000Y-29090000D03*
D17*
X83960000Y-31590000D03*
%TD*%
D18*
%TO.C,R5*%
X161200000Y-84780000D03*
X161200000Y-86600000D03*
%TD*%
D19*
%TO.C,D17*%
X245980000Y-68580000D03*
D20*
X245980000Y-71120000D03*
%TD*%
D21*
%TO.C,R19*%
X231240000Y-67570000D03*
X231240000Y-65750000D03*
%TD*%
D22*
%TO.C,C21*%
X215330000Y-40290000D03*
X215330000Y-42190000D03*
%TD*%
D19*
%TO.C,D4*%
X236816000Y-28065000D03*
D20*
X239356000Y-28065000D03*
%TD*%
D10*
%TO.C,K4*%
X172024331Y-79599062D03*
X180924331Y-94799062D03*
X163124331Y-104939062D03*
X163124331Y-97339062D03*
D11*
X177124331Y-82139062D03*
D12*
X166924331Y-82139062D03*
%TD*%
D23*
%TO.C,C20*%
X215070000Y-38220000D03*
X216970000Y-38220000D03*
%TD*%
D24*
%TO.C,C14*%
X237590000Y-70200000D03*
X237590000Y-63250000D03*
%TD*%
D10*
%TO.C,K11*%
X141955200Y-114187000D03*
X150855200Y-129387000D03*
X133055200Y-139527000D03*
X133055200Y-131927000D03*
D11*
X147055200Y-116727000D03*
D12*
X136855200Y-116727000D03*
%TD*%
D25*
%TO.C,C15*%
X192900000Y-35640000D03*
X192900000Y-32560000D03*
%TD*%
D22*
%TO.C,C4*%
X246094000Y-36870000D03*
X246094000Y-38770000D03*
%TD*%
D26*
%TO.C,C13*%
X162179000Y-42799000D03*
X160279000Y-42799000D03*
%TD*%
D21*
%TO.C,R1*%
X216000000Y-87620000D03*
X216000000Y-85800000D03*
%TD*%
D27*
%TO.C,Q2*%
X223215000Y-40195000D03*
X222565000Y-40195000D03*
X221915000Y-40195000D03*
X221915000Y-42095000D03*
X222565000Y-42095000D03*
X223215000Y-42095000D03*
%TD*%
D28*
%TO.C,J19*%
X210463000Y-27642500D03*
D29*
X207923000Y-27642500D03*
X205383000Y-27642500D03*
X202843000Y-27642500D03*
X200303000Y-27642500D03*
X197763000Y-27642500D03*
X195223000Y-27642500D03*
X192683000Y-27642500D03*
X190143000Y-27642500D03*
X187603000Y-27642500D03*
X185063000Y-27642500D03*
X182523000Y-27642500D03*
%TD*%
D30*
%TO.C,C19*%
X223515000Y-44520000D03*
X226220000Y-44520000D03*
%TD*%
D10*
%TO.C,K5*%
X141942550Y-79559705D03*
X150842550Y-94759705D03*
X133042550Y-104899705D03*
X133042550Y-97299705D03*
D11*
X147042550Y-82099705D03*
D12*
X136842550Y-82099705D03*
%TD*%
D31*
%TO.C,REF\u002A\u002A*%
X244490000Y-28220000D03*
%TD*%
D32*
%TO.C,D6*%
X71060000Y-32360000D03*
X75060000Y-32360000D03*
%TD*%
D33*
%TO.C,C8*%
X56350000Y-36475000D03*
X56350000Y-51475000D03*
%TD*%
D31*
%TO.C,REF\u002A\u002A*%
X55210000Y-28140000D03*
%TD*%
D10*
%TO.C,K10*%
X172034800Y-114187000D03*
X180934800Y-129387000D03*
X163134800Y-139527000D03*
X163134800Y-131927000D03*
D11*
X177134800Y-116727000D03*
D12*
X166934800Y-116727000D03*
%TD*%
D34*
%TO.C,TP14*%
X194100000Y-54525000D03*
%TD*%
D35*
%TO.C,C27*%
X125933200Y-84667600D03*
X125933200Y-87747600D03*
%TD*%
D36*
%TO.C,OC2*%
X188835000Y-76067500D03*
X190105000Y-76067500D03*
X190105000Y-69692500D03*
X188835000Y-69692500D03*
%TD*%
D37*
%TO.C,OC1*%
X136055000Y-27432500D03*
X134785000Y-27432500D03*
X134785000Y-33807500D03*
X136055000Y-33807500D03*
%TD*%
D18*
%TO.C,R18*%
X139570000Y-36620000D03*
X139570000Y-38440000D03*
%TD*%
D38*
%TO.C,D20*%
X158175000Y-77075000D03*
X158175000Y-81075000D03*
%TD*%
D39*
%TO.C,D2*%
X187710000Y-33390000D03*
X183710000Y-33390000D03*
%TD*%
D40*
%TO.C,J2*%
X58725000Y-118125000D03*
%TD*%
D18*
%TO.C,R20*%
X231240000Y-69700000D03*
X231240000Y-71520000D03*
%TD*%
D34*
%TO.C,TP4*%
X96350000Y-40000000D03*
%TD*%
D41*
%TO.C,R14*%
X86430000Y-39600000D03*
X66110000Y-39600000D03*
%TD*%
D39*
%TO.C,D14*%
X225667500Y-47720000D03*
X221667500Y-47720000D03*
%TD*%
D38*
%TO.C,D29*%
X67800000Y-111550000D03*
X67800000Y-115550000D03*
%TD*%
D22*
%TO.C,C3*%
X242665000Y-36870000D03*
X242665000Y-38770000D03*
%TD*%
D35*
%TO.C,C26*%
X129590800Y-84667600D03*
X129590800Y-87747600D03*
%TD*%
D34*
%TO.C,TP7*%
X235025000Y-60875000D03*
%TD*%
D32*
%TO.C,D10*%
X62610000Y-32350000D03*
X66610000Y-32350000D03*
%TD*%
D38*
%TO.C,D23*%
X67800000Y-77175000D03*
X67800000Y-81175000D03*
%TD*%
D21*
%TO.C,R11*%
X246065000Y-35070000D03*
X246065000Y-33250000D03*
%TD*%
D38*
%TO.C,D18*%
X220167200Y-77146400D03*
X220167200Y-81146400D03*
%TD*%
%TO.C,D21*%
X128075000Y-77075000D03*
X128075000Y-81075000D03*
%TD*%
D19*
%TO.C,D1*%
X231546000Y-28050000D03*
D20*
X234086000Y-28050000D03*
%TD*%
D38*
%TO.C,D26*%
X158425000Y-111550000D03*
X158425000Y-115550000D03*
%TD*%
D42*
%TO.C,XFORMER_OUT1*%
X171107000Y-29922500D03*
D43*
X166107000Y-29922500D03*
%TD*%
D44*
%TO.C,L2*%
X117120000Y-38190000D03*
X117120000Y-28290000D03*
%TD*%
D45*
%TO.C,C25*%
X226390000Y-42195000D03*
X226390000Y-40295000D03*
%TD*%
D44*
%TO.C,L3*%
X161000000Y-70700000D03*
X161000000Y-60800000D03*
%TD*%
D38*
%TO.C,D24*%
X218950000Y-111550000D03*
X218950000Y-115550000D03*
%TD*%
D46*
%TO.C,C11*%
X209080000Y-48620000D03*
X214480000Y-48620000D03*
%TD*%
D47*
%TO.C,D9*%
X170175000Y-37695000D03*
D48*
X175255000Y-37695000D03*
X180335000Y-37695000D03*
X185415000Y-37695000D03*
%TD*%
D49*
%TO.C,C9*%
X147272220Y-50000000D03*
D33*
X154772220Y-50000000D03*
%TD*%
D38*
%TO.C,D19*%
X188225000Y-80025000D03*
X188225000Y-84025000D03*
%TD*%
D50*
%TO.C,J6*%
X66516098Y-64936807D03*
D51*
X66516098Y-59936807D03*
X66516098Y-54936807D03*
X66516098Y-49936807D03*
%TD*%
D10*
%TO.C,K3*%
X202106422Y-79589474D03*
X211006422Y-94789474D03*
X193206422Y-104929474D03*
X193206422Y-97329474D03*
D11*
X207206422Y-82129474D03*
D12*
X197006422Y-82129474D03*
%TD*%
D31*
%TO.C,REF\u002A\u002A*%
X244210000Y-150090000D03*
%TD*%
D32*
%TO.C,D11*%
X62620000Y-27930000D03*
X66620000Y-27930000D03*
%TD*%
D38*
%TO.C,D12*%
X137450000Y-65050000D03*
X137450000Y-69050000D03*
%TD*%
%TO.C,D28*%
X98025000Y-111550000D03*
X98025000Y-115550000D03*
%TD*%
D18*
%TO.C,R4*%
X155600000Y-84800000D03*
X155600000Y-86620000D03*
%TD*%
D38*
%TO.C,D25*%
X188325000Y-111550000D03*
X188325000Y-115550000D03*
%TD*%
D18*
%TO.C,R8*%
X158440000Y-84800000D03*
X158440000Y-86620000D03*
%TD*%
D10*
%TO.C,K7*%
X81843890Y-79576737D03*
X90743890Y-94776737D03*
X72943890Y-104916737D03*
X72943890Y-97316737D03*
D11*
X86943890Y-82116737D03*
D12*
X76743890Y-82116737D03*
%TD*%
D38*
%TO.C,D22*%
X98375000Y-77125000D03*
X98375000Y-81125000D03*
%TD*%
D52*
%TO.C,J22*%
X173120000Y-148000000D03*
%TD*%
D53*
%TO.C,R9*%
X187440000Y-91150000D03*
X189260000Y-91150000D03*
%TD*%
D45*
%TO.C,C22*%
X218790000Y-42195000D03*
X218790000Y-40295000D03*
%TD*%
D54*
%TO.C,C7*%
X147000000Y-61800000D03*
X147000000Y-70200000D03*
%TD*%
D52*
%TO.C,J20*%
X232800000Y-148000000D03*
%TD*%
D10*
%TO.C,K6*%
X111817862Y-79576737D03*
X120717862Y-94776737D03*
X102917862Y-104916737D03*
X102917862Y-97316737D03*
D11*
X116917862Y-82116737D03*
D12*
X106717862Y-82116737D03*
%TD*%
D55*
%TO.C,SW2*%
X231870000Y-33050000D03*
X236020000Y-33050000D03*
%TD*%
D56*
%TO.C,JP3*%
X219450000Y-44540000D03*
X218150000Y-44540000D03*
%TD*%
D14*
%TO.C,C2*%
X186359800Y-57726800D03*
X186359800Y-49326800D03*
%TD*%
D57*
%TO.C,RV1*%
X183340000Y-44030000D03*
X185880000Y-44030000D03*
X188420000Y-44030000D03*
%TD*%
D21*
%TO.C,R7*%
X218670000Y-87610000D03*
X218670000Y-85790000D03*
%TD*%
%TO.C,R10*%
X239236000Y-38775000D03*
X239236000Y-36955000D03*
%TD*%
D28*
%TO.C,J3*%
X57225000Y-59350000D03*
D29*
X57225000Y-56810000D03*
%TD*%
D15*
%TO.C,U1*%
X183260000Y-70400000D03*
X183260000Y-68700000D03*
X183260000Y-67000000D03*
X183260000Y-65300000D03*
X183260000Y-63600000D03*
D16*
X175750000Y-69500000D03*
X175750000Y-67000000D03*
X175750000Y-64500000D03*
X173250000Y-69500000D03*
X173250000Y-67000000D03*
X173250000Y-64500000D03*
D17*
X173240000Y-67000000D03*
%TD*%
D58*
%TO.C,JP2*%
X133225000Y-53500000D03*
X133225000Y-54800000D03*
X133225000Y-56100000D03*
%TD*%
D59*
%TO.C,R21*%
X226450000Y-51190000D03*
X224630000Y-51190000D03*
%TD*%
D52*
%TO.C,J23*%
X143280000Y-148000000D03*
%TD*%
D55*
%TO.C,SW1*%
X231870000Y-37450000D03*
X236020000Y-37450000D03*
%TD*%
D26*
%TO.C,C12*%
X161935200Y-56616600D03*
X160035200Y-56616600D03*
%TD*%
D18*
%TO.C,R12*%
X239265000Y-33250000D03*
X239265000Y-35070000D03*
%TD*%
D46*
%TO.C,C5*%
X187792400Y-64058800D03*
X193192400Y-64058800D03*
%TD*%
D58*
%TO.C,JP1*%
X133225000Y-58775000D03*
X133225000Y-60075000D03*
X133225000Y-61375000D03*
%TD*%
D44*
%TO.C,L1*%
X198780400Y-51254200D03*
X198780400Y-41354200D03*
%TD*%
D60*
%TO.C,J10*%
X58850000Y-74525000D03*
%TD*%
D52*
%TO.C,J25*%
X83600000Y-148000000D03*
%TD*%
D31*
%TO.C,REF\u002A\u002A*%
X55170000Y-150360000D03*
%TD*%
D47*
%TO.C,D8*%
X146695000Y-37695000D03*
D48*
X151775000Y-37695000D03*
X156855000Y-37695000D03*
X161935000Y-37695000D03*
%TD*%
D23*
%TO.C,C18*%
X213925000Y-28000000D03*
X215825000Y-28000000D03*
%TD*%
D39*
%TO.C,D13*%
X211300000Y-42670000D03*
X207300000Y-42670000D03*
%TD*%
D59*
%TO.C,R3*%
X127900000Y-37530000D03*
X126080000Y-37530000D03*
%TD*%
D38*
%TO.C,D27*%
X128250000Y-111550000D03*
X128250000Y-115550000D03*
%TD*%
D40*
%TO.C,J1*%
X58725000Y-90850000D03*
%TD*%
D10*
%TO.C,K12*%
X111875600Y-114187000D03*
X120775600Y-129387000D03*
X102975600Y-139527000D03*
X102975600Y-131927000D03*
D11*
X116975600Y-116727000D03*
D12*
X106775600Y-116727000D03*
%TD*%
D61*
%TO.C,Q1*%
X187400000Y-86762500D03*
X187400000Y-87412500D03*
X187400000Y-88062500D03*
X189300000Y-88062500D03*
X189300000Y-87412500D03*
X189300000Y-86762500D03*
%TD*%
D62*
%TO.C,C6*%
X128870000Y-28370000D03*
X128870000Y-33770000D03*
%TD*%
D21*
%TO.C,R2*%
X191516000Y-84886800D03*
X191516000Y-83066800D03*
%TD*%
D19*
%TO.C,D16*%
X245980000Y-62070000D03*
D20*
X245980000Y-64610000D03*
%TD*%
D63*
%TO.C,DZ1*%
X231450000Y-63880000D03*
X231450000Y-60580000D03*
%TD*%
D32*
%TO.C,D5*%
X209550000Y-54310000D03*
X213550000Y-54310000D03*
%TD*%
D42*
%TO.C,XFORMER_IN*%
X158900000Y-29922500D03*
D43*
X153900000Y-29922500D03*
%TD*%
D32*
%TO.C,D3*%
X131880000Y-37730000D03*
X135880000Y-37730000D03*
%TD*%
D64*
%TO.C,C16*%
X211166200Y-38862000D03*
X208086200Y-38862000D03*
%TD*%
D33*
%TO.C,K1*%
X209380000Y-64590000D03*
X223580000Y-58590000D03*
X223580000Y-70590000D03*
D65*
X211380000Y-70590000D03*
D33*
X211380000Y-58590000D03*
%TD*%
D28*
%TO.C,J14*%
X226870000Y-27650000D03*
D29*
X224330000Y-27650000D03*
X221790000Y-27650000D03*
X219250000Y-27650000D03*
%TD*%
D34*
%TO.C,TP8*%
X242450000Y-60800000D03*
%TD*%
D66*
%TO.C,U4*%
X197690000Y-68860000D03*
X199390000Y-68860000D03*
X201090000Y-68860000D03*
X202790000Y-68860000D03*
X204490000Y-68860000D03*
D16*
X198590000Y-61350000D03*
X201090000Y-61350000D03*
X203590000Y-61350000D03*
X198590000Y-58850000D03*
X201090000Y-58850000D03*
X203590000Y-58850000D03*
D67*
X201090000Y-58840000D03*
%TD*%
D68*
%TO.C,U5*%
X196290000Y-32850000D03*
X196290000Y-35150000D03*
X196290000Y-37450000D03*
D16*
X202260000Y-36150000D03*
X202260000Y-35150000D03*
D69*
X202260000Y-35150000D03*
D16*
X202260000Y-34150000D03*
%TD*%
D42*
%TO.C,XFORMER_OUT2*%
X146693000Y-29922500D03*
D43*
X141693000Y-29922500D03*
%TD*%
D52*
%TO.C,J21*%
X202960000Y-148000000D03*
%TD*%
D70*
%TO.C,Y1*%
X207040000Y-34210000D03*
X215940000Y-34210000D03*
%TD*%
D52*
%TO.C,J24*%
X113440000Y-148000000D03*
%TD*%
D49*
%TO.C,C10*%
X167272220Y-50000000D03*
D33*
X174772220Y-50000000D03*
%TD*%
D32*
%TO.C,D7*%
X71080000Y-27890000D03*
X75080000Y-27890000D03*
%TD*%
D10*
%TO.C,K2*%
X232326329Y-79595347D03*
X241226329Y-94795347D03*
X223426329Y-104935347D03*
X223426329Y-97335347D03*
D11*
X237426329Y-82135347D03*
D12*
X227226329Y-82135347D03*
%TD*%
D21*
%TO.C,R6*%
X242665000Y-35070000D03*
X242665000Y-33250000D03*
%TD*%
D53*
%TO.C,R22*%
X219700000Y-51180000D03*
X221520000Y-51180000D03*
%TD*%
D10*
%TO.C,K9*%
X202114400Y-114187000D03*
X211014400Y-129387000D03*
X193214400Y-139527000D03*
X193214400Y-131927000D03*
D11*
X207214400Y-116727000D03*
D12*
X197014400Y-116727000D03*
%TD*%
D41*
%TO.C,R13*%
X56388000Y-39878000D03*
X56388000Y-47498000D03*
%TD*%
D10*
%TO.C,K13*%
X81796000Y-114187000D03*
X90696000Y-129387000D03*
X72896000Y-139527000D03*
X72896000Y-131927000D03*
D11*
X86896000Y-116727000D03*
D12*
X76696000Y-116727000D03*
%TD*%
D71*
%TO.C,U3*%
X247525000Y-40920000D03*
X246255000Y-40920000D03*
X244985000Y-40920000D03*
X243715000Y-40920000D03*
X242445000Y-40920000D03*
X241175000Y-40920000D03*
X239905000Y-40920000D03*
X238635000Y-40920000D03*
X237365000Y-40920000D03*
X236095000Y-40920000D03*
X234825000Y-40920000D03*
X233555000Y-40920000D03*
X232285000Y-40920000D03*
X231015000Y-40920000D03*
D72*
X229765000Y-43955000D03*
X229765000Y-45225000D03*
X229765000Y-46495000D03*
X229765000Y-47765000D03*
X229765000Y-49035000D03*
X229765000Y-50305000D03*
X229765000Y-51575000D03*
X229765000Y-52845000D03*
X229765000Y-54115000D03*
X229765000Y-55385000D03*
D71*
X231015000Y-58420000D03*
X232285000Y-58420000D03*
X233555000Y-58420000D03*
X234825000Y-58420000D03*
X236095000Y-58420000D03*
X237365000Y-58420000D03*
X238635000Y-58420000D03*
X239905000Y-58420000D03*
X241175000Y-58420000D03*
X242445000Y-58420000D03*
X243715000Y-58420000D03*
X244985000Y-58420000D03*
X246255000Y-58420000D03*
X247525000Y-58420000D03*
D73*
X241205000Y-46770000D03*
D74*
X240505000Y-46770000D03*
D73*
X239805000Y-46770000D03*
D74*
X239105000Y-46770000D03*
D73*
X238405000Y-46770000D03*
D74*
X241205000Y-47470000D03*
X239805000Y-47470000D03*
X238405000Y-47470000D03*
D73*
X241205000Y-48170000D03*
D74*
X240505000Y-48170000D03*
D73*
X239805000Y-48170000D03*
D74*
X239105000Y-48170000D03*
D73*
X238405000Y-48170000D03*
D74*
X241205000Y-48870000D03*
X239805000Y-48870000D03*
X238405000Y-48870000D03*
D73*
X241205000Y-49570000D03*
D74*
X240505000Y-49570000D03*
D73*
X239805000Y-49570000D03*
D74*
X239105000Y-49570000D03*
D73*
X238405000Y-49570000D03*
%TD*%
D28*
%TO.C,J11*%
X128031200Y-61258200D03*
D29*
X128031200Y-58718200D03*
X128031200Y-56178200D03*
X128031200Y-53638200D03*
%TD*%
M02*
