M48
; DRILL file {KiCad 9.0.5} date 2025-10-18T22:02:24+0100
; FORMAT={-:-/ absolute / inch / decimal}
; #@! TF.CreationDate,2025-10-18T22:02:24+01:00
; #@! TF.GenerationSoftware,Kicad,Pcbnew,9.0.5
; #@! TF.FileFunction,Plated,1,4,PTH
FMAT,2
INCH
; #@! TA.AperFunction,Plated,PTH,ViaDrill
T1C0.0118
; #@! TA.AperFunction,Plated,PTH,ComponentDrill
T2C0.0118
; #@! TA.AperFunction,Plated,PTH,ViaDrill
T3C0.0157
; #@! TA.AperFunction,Plated,PTH,ComponentDrill
T4C0.0315
; #@! TA.AperFunction,Plated,PTH,ComponentDrill
T5C0.0354
; #@! TA.AperFunction,Plated,PTH,ComponentDrill
T6C0.0394
; #@! TA.AperFunction,Plated,PTH,ComponentDrill
T7C0.0433
; #@! TA.AperFunction,Plated,PTH,ViaDrill
T8C0.0472
; #@! TA.AperFunction,Plated,PTH,ComponentDrill
T9C0.0472
; #@! TA.AperFunction,Plated,PTH,ComponentDrill
T10C0.0512
; #@! TA.AperFunction,Plated,PTH,ComponentDrill
T11C0.0630
; #@! TA.AperFunction,Plated,PTH,ComponentDrill
T12C0.0787
; #@! TA.AperFunction,Plated,PTH,ComponentDrill
T13C0.1260
; #@! TA.AperFunction,Plated,PTH,ComponentDrill
T14C0.1969
; #@! TA.AperFunction,Plated,PTH,ComponentDrill
T15C0.2756
%
G90
G05
T1
X5.5472Y-1.5144
X5.955Y-2.775
X5.99Y-2.775
X6.025Y-2.775
X7.2766Y-2.4695
X7.3563Y-2.7356
X7.4024Y-2.925
X7.54Y-2.925
X7.5765Y-2.7323
X8.5108Y-2.7657
X8.6385Y-2.7717
X8.715Y-1.39
X8.785Y-1.365
X8.9114Y-2.8858
X8.98Y-1.35
X9.01Y-1.35
X9.0874Y-0.995
X9.105Y-1.355
X9.115Y-0.995
X9.145Y-1.355
X9.1959Y-2.2486
X9.2447Y-2.2478
X9.3285Y-2.0335
X9.3437Y-2.2461
X9.42Y-2.51
X9.42Y-2.54
X9.45Y-2.51
X9.45Y-2.54
X9.48Y-2.51
X9.48Y-2.54
X9.7106Y-2.2362
X9.7372Y-4.1161
T2
X3.3059Y-1.1453
X3.3059Y-1.2437
X3.3059Y-1.3421
X3.4043Y-1.1453
X3.4043Y-1.2437
X3.4043Y-1.3421
X6.8209Y-2.5394
X6.8209Y-2.6378
X6.8209Y-2.7362
X6.9193Y-2.5394
X6.9193Y-2.6378
X6.9193Y-2.7362
X7.8185Y-2.3169
X7.8185Y-2.4154
X7.9169Y-2.3169
X7.9169Y-2.4154
X7.963Y-1.3445
X7.963Y-1.3839
X7.963Y-1.4232
X8.0154Y-2.3169
X8.0154Y-2.4154
X9.386Y-1.8689
X9.386Y-1.924
X9.4136Y-1.8413
X9.4136Y-1.8965
X9.4136Y-1.9516
X9.4411Y-1.8689
X9.4411Y-1.924
X9.4687Y-1.8413
X9.4687Y-1.8965
X9.4687Y-1.9516
X9.4963Y-1.8689
X9.4963Y-1.924
T3
X7.7362Y-1.5148
X7.8953Y-2.5035
X7.9803Y-1.9646
X8.3317Y-1.4449
X8.6986Y-1.8157
X9.7433Y-1.4508
T4
X2.22Y-1.57
X2.22Y-1.87
X2.6028Y-1.5591
X3.4028Y-1.5591
X7.2181Y-1.7335
X7.3181Y-1.7335
X7.4181Y-1.7335
T5
X9.116Y-1.1043
X9.216Y-1.1043
X9.3235Y-1.1049
X9.4235Y-1.1049
X9.6843Y-2.4437
X9.6843Y-2.5437
X9.6843Y-2.7
X9.6843Y-2.8
T6
X2.253Y-2.2366
X2.253Y-2.3366
X5.0406Y-2.1117
X5.0406Y-2.2117
X5.0406Y-2.3117
X5.0406Y-2.4117
X7.1859Y-1.0883
X7.2859Y-1.0883
X7.3859Y-1.0883
X7.4859Y-1.0883
X7.5859Y-1.0883
X7.6859Y-1.0883
X7.7859Y-1.0883
X7.8859Y-1.0883
X7.9859Y-1.0883
X8.0859Y-1.0883
X8.1859Y-1.0883
X8.2859Y-1.0883
X8.6319Y-1.0886
X8.7319Y-1.0886
X8.8319Y-1.0886
X8.9319Y-1.0886
T7
X3.0195Y-4.5956
X3.0214Y-3.2329
X3.4211Y-4.5956
X3.423Y-3.2329
X4.2015Y-3.2329
X4.2038Y-4.5956
X4.6031Y-3.2329
X4.6053Y-4.5956
X5.3875Y-3.2323
X5.388Y-4.5956
X5.7891Y-3.2323
X5.7896Y-4.5956
X6.5718Y-3.2338
X6.5722Y-4.5956
X6.9734Y-3.2338
X6.9738Y-4.5956
X7.7562Y-3.2334
X7.7565Y-4.5956
X8.1577Y-3.2334
X8.158Y-4.5956
X8.9407Y-4.5956
X8.9459Y-3.2337
X9.3423Y-4.5956
X9.3475Y-3.2337
T8
X6.9646Y-1.0866
X8.1063Y-2.8583
T9
X2.2185Y-1.436
X2.2185Y-2.0266
X5.7981Y-1.9685
X6.0934Y-1.9685
X6.5855Y-1.9685
X6.8808Y-1.9685
T10
X2.6187Y-1.966
X2.6187Y-2.1629
X2.6187Y-2.3597
X2.6187Y-2.5566
X5.5785Y-1.1781
X5.7753Y-1.1781
X6.0591Y-1.1781
X6.2559Y-1.1781
X6.5396Y-1.1781
X6.7365Y-1.1781
X8.2433Y-2.5429
X8.322Y-2.3067
X8.322Y-2.7791
X8.8024Y-2.3067
X8.8024Y-2.7791
T11
X2.8699Y-5.194
X2.8699Y-5.4932
X2.8718Y-3.8314
X2.8718Y-4.1306
X3.2203Y-4.4956
X3.2222Y-3.1329
X3.5707Y-5.094
X3.5726Y-3.7314
X4.0519Y-3.8314
X4.0519Y-4.1306
X4.0542Y-5.194
X4.0542Y-5.4932
X4.4023Y-3.1329
X4.4046Y-4.4956
X4.7527Y-3.7314
X4.7549Y-5.094
X5.2379Y-3.8307
X5.2379Y-4.1299
X5.2384Y-5.194
X5.2384Y-5.4932
X5.5883Y-3.1323
X5.5888Y-4.4956
X5.7754Y-1.4841
X5.9387Y-3.7307
X5.9392Y-5.094
X5.9754Y-1.4841
X6.1754Y-1.4841
X6.3754Y-1.4841
X6.4222Y-3.8322
X6.4222Y-4.1315
X6.4226Y-5.194
X6.4226Y-5.4932
X6.6998Y-1.4841
X6.7726Y-3.1338
X6.773Y-4.4956
X6.8998Y-1.4841
X7.0998Y-1.4841
X7.123Y-3.7322
X7.1234Y-5.094
X7.2998Y-1.4841
X7.6066Y-3.8319
X7.6066Y-4.1311
X7.6069Y-5.194
X7.6069Y-5.4932
X7.9569Y-3.1334
X7.9573Y-4.4956
X8.3073Y-3.7319
X8.3077Y-5.094
X8.7911Y-5.194
X8.7911Y-5.4932
X8.7963Y-3.8321
X8.7963Y-4.1313
X9.1415Y-4.4956
X9.1467Y-3.1337
X9.4919Y-5.094
X9.4971Y-3.7321
T12
X2.3169Y-2.9341
T13
X2.172Y-5.9197
X2.1736Y-1.1079
X9.6146Y-5.9091
X9.6256Y-1.111
T14
X3.2913Y-5.8268
X4.4661Y-5.8268
X5.6409Y-5.8268
X6.8157Y-5.8268
X7.9906Y-5.8268
X9.1654Y-5.8268
T15
X2.312Y-3.5768
X2.312Y-4.6506
M30
