%TF.GenerationSoftware,KiCad,Pcbnew,9.0.5*%
%TF.CreationDate,2025-10-18T22:02:24+01:00*%
%TF.ProjectId,Smart Home Energy Management System,536d6172-7420-4486-9f6d-6520456e6572,rev?*%
%TF.SameCoordinates,Original*%
%TF.FileFunction,Profile,NP*%
%FSLAX46Y46*%
G04 Gerber Fmt 4.6, Leading zero omitted, Abs format (unit mm)*
G04 Created by KiCad (PCBNEW 9.0.5) date 2025-10-18 22:02:24*
%MOMM*%
%LPD*%
G01*
G04 APERTURE LIST*
%TA.AperFunction,Profile*%
%ADD10C,0.050000*%
%TD*%
G04 APERTURE END LIST*
D10*
X111194000Y-72925000D02*
X163794000Y-72925000D01*
X163794000Y-73870000D01*
X111194000Y-73870000D01*
X111194000Y-72925000D01*
X248830000Y-26866000D02*
X248830000Y-151660000D01*
X50740000Y-151660000D02*
X50740000Y-26866000D01*
X245830000Y-154660000D02*
X53740000Y-154660000D01*
X50740000Y-26866000D02*
G75*
G02*
X53740000Y-23866000I3000000J0D01*
G01*
X71585000Y-42867000D02*
X73200000Y-42867000D01*
X73200000Y-72097600D01*
X71585000Y-72097600D01*
X71585000Y-42867000D01*
X199983600Y-72847500D02*
X204266400Y-72847500D01*
X204266400Y-73852500D01*
X199983600Y-73852500D01*
X199983600Y-72847500D01*
X77784000Y-72925000D02*
X106734000Y-72925000D01*
X106734000Y-73845000D01*
X77784000Y-73845000D01*
X77784000Y-72925000D01*
X168971100Y-72925000D02*
X184028900Y-72925000D01*
X184028900Y-73930000D01*
X168971100Y-73930000D01*
X168971100Y-72925000D01*
X216265800Y-55770000D02*
X228270000Y-55770000D01*
X228270000Y-56475000D01*
X216265800Y-56475000D01*
X216265800Y-55770000D01*
X207542200Y-72895000D02*
X215475000Y-72895000D01*
X215475000Y-73900000D01*
X207542200Y-73900000D01*
X207542200Y-72895000D01*
X245830000Y-23866000D02*
G75*
G02*
X248830000Y-26866000I0J-3000000D01*
G01*
X227404700Y-72925000D02*
X243423500Y-72925000D01*
X243423500Y-73930000D01*
X227404700Y-73930000D01*
X227404700Y-72925000D01*
X216260000Y-57287600D02*
X217305000Y-57287600D01*
X217305000Y-61380000D01*
X216260000Y-61380000D01*
X216260000Y-57287600D01*
X61933000Y-42882800D02*
X69647600Y-42882800D01*
X69647600Y-44239200D01*
X61933000Y-44239200D01*
X61933000Y-42882800D01*
X248830000Y-151660000D02*
G75*
G02*
X245830000Y-154660000I-3000000J0D01*
G01*
X53740000Y-154660000D02*
G75*
G02*
X50740000Y-151660000I0J3000000D01*
G01*
X53740000Y-23866000D02*
X245830000Y-23866000D01*
X227395000Y-56516000D02*
X228275000Y-56516000D01*
X228275000Y-72875000D01*
X227395000Y-72875000D01*
X227395000Y-56516000D01*
X208478000Y-61397500D02*
X215014000Y-61397500D01*
X215014000Y-62402500D01*
X208478000Y-62402500D01*
X208478000Y-61397500D01*
M02*
